<?xml version="1.0" encoding="utf-8" standalone="no"?>
<!DOCTYPE svg PUBLIC "-//W3C//DTD SVG 1.1//EN"
  "http://www.w3.org/Graphics/SVG/1.1/DTD/svg11.dtd">
<svg xmlns:xlink="http://www.w3.org/1999/xlink" width="828pt" height="439.2pt" viewBox="0 0 828 439.2" xmlns="http://www.w3.org/2000/svg" version="1.1">
 <metadata>
  <rdf:RDF xmlns:dc="http://purl.org/dc/elements/1.1/" xmlns:cc="http://creativecommons.org/ns#" xmlns:rdf="http://www.w3.org/1999/02/22-rdf-syntax-ns#">
   <cc:Work>
    <dc:type rdf:resource="http://purl.org/dc/dcmitype/StillImage"/>
    <dc:date>2026-10-01T21:40:16.663920</dc:date>
    <dc:format>image/svg+xml</dc:format>
    <dc:creator>
     <cc:Agent>
      <dc:title>Matplotlib v3.11.2, https://matplotlib.org/</dc:title>
     </cc:Agent>
    </dc:creator>
   </cc:Work>
  </rdf:RDF>
 </metadata>
 <defs>
  <style type="text/css">*{stroke-linejoin: round; stroke-linecap: butt}</style>
 </defs>
 <g id="figure_1">
  <g id="patch_1">
   <path d="M 0 439.2 
L 828 439.2 
L 828 0 
L 0 0 
z
" style="fill: #ffffff"/>
  </g>
  <g id="axes_1">
   <g id="patch_2">
    <path d="M 216.953514 144.273382 
Q 216.953514 158.531356 216.953514 171.224082 
" clip-path="url(#p6d165360c4)" style="fill: none; stroke: #203142; stroke-width: 1.4; stroke-linecap: round"/>
    <path d="M 219.953514 165.224082 
L 216.953514 171.224082 
L 213.953514 165.224082 
z
" clip-path="url(#p6d165360c4)" style="fill: #203142; stroke: #203142; stroke-width: 1.4; stroke-linecap: round"/>
   </g>
   <g id="patch_3">
    <path d="M 611.046486 144.273382 
Q 611.046486 158.531356 611.046486 171.224082 
" clip-path="url(#p6d165360c4)" style="fill: none; stroke: #203142; stroke-width: 1.4; stroke-linecap: round"/>
    <path d="M 614.046486 165.224082 
L 611.046486 171.224082 
L 608.046486 165.224082 
z
" clip-path="url(#p6d165360c4)" style="fill: #203142; stroke: #203142; stroke-width: 1.4; stroke-linecap: round"/>
   </g>
   <g id="patch_4">
    <path d="M 216.953514 357.05773 
C 239.162883 357.05773 260.465603 348.233854 276.169999 332.529458 
C 291.874394 316.825063 300.69827 295.522342 300.69827 273.312973 
C 300.69827 251.103604 291.874394 229.800883 276.169999 214.096488 
C 260.465603 198.392092 239.162883 189.568216 216.953514 189.568216 
C 194.744144 189.568216 173.441424 198.392092 157.737028 214.096488 
C 142.032633 229.800883 133.208757 251.103604 133.208757 273.312973 
C 133.208757 295.522342 142.032633 316.825063 157.737028 332.529458 
C 173.441424 348.233854 194.744144 357.05773 216.953514 357.05773 
L 216.953514 357.05773 
z
" clip-path="url(#p6d165360c4)" style="fill: none; stroke-dasharray: 1.5,2.475; stroke-dashoffset: 0; stroke: #c5cbd1; stroke-width: 1.5; stroke-linejoin: miter"/>
   </g>
   <g id="patch_5">
    <path d="M 611.046486 357.05773 
C 633.255856 357.05773 654.558576 348.233854 670.262972 332.529458 
C 685.967367 316.825063 694.791243 295.522342 694.791243 273.312973 
C 694.791243 251.103604 685.967367 229.800883 670.262972 214.096488 
C 654.558576 198.392092 633.255856 189.568216 611.046486 189.568216 
C 588.837117 189.568216 567.534397 198.392092 551.830001 214.096488 
C 536.125606 229.800883 527.30173 251.103604 527.30173 273.312973 
C 527.30173 295.522342 536.125606 316.825063 551.830001 332.529458 
C 567.534397 348.233854 588.837117 357.05773 611.046486 357.05773 
L 611.046486 357.05773 
z
" clip-path="url(#p6d165360c4)" style="fill: none; stroke-dasharray: 1.5,2.475; stroke-dashoffset: 0; stroke: #c5cbd1; stroke-width: 1.5; stroke-linejoin: miter"/>
   </g>
   <g id="line2d_1">
    <path d="M 216.953514 120.601946 
L 611.046486 120.601946 
" clip-path="url(#p6d165360c4)" style="fill: none; stroke: #1477b5; stroke-width: 2.5; stroke-linecap: round"/>
   </g>
   <g id="line2d_2">
    <path d="M 293.801643 273.312973 
L 178.529449 206.76054 
" clip-path="url(#p6d165360c4)" style="fill: none; stroke: #8454ac; stroke-width: 2.5; stroke-linecap: round"/>
   </g>
   <g id="line2d_3">
    <path d="M 293.801643 273.312973 
L 178.529449 339.865406 
" clip-path="url(#p6d165360c4)" style="fill: none; stroke: #8454ac; stroke-width: 2.5; stroke-linecap: round"/>
   </g>
   <g id="line2d_4">
    <path d="M 178.529449 206.76054 
L 178.529449 339.865406 
" clip-path="url(#p6d165360c4)" style="fill: none; stroke: #8454ac; stroke-width: 2.5; stroke-linecap: round"/>
   </g>
   <g id="line2d_5">
    <path d="M 216.953514 273.312973 
L 293.801643 273.312973 
" clip-path="url(#p6d165360c4)" style="fill: none; stroke: #bd661d; stroke-width: 2.5; stroke-linecap: round"/>
   </g>
   <g id="line2d_6">
    <path d="M 216.953514 273.312973 
L 178.529449 206.76054 
" clip-path="url(#p6d165360c4)" style="fill: none; stroke: #bd661d; stroke-width: 2.5; stroke-linecap: round"/>
   </g>
   <g id="line2d_7">
    <path d="M 216.953514 273.312973 
L 178.529449 339.865406 
" clip-path="url(#p6d165360c4)" style="fill: none; stroke: #bd661d; stroke-width: 2.5; stroke-linecap: round"/>
   </g>
   <g id="line2d_8">
    <path d="M 178.529449 206.76054 
L 153.553806 163.501459 
" clip-path="url(#p6d165360c4)" style="fill: none; stroke: #1477b5; stroke-width: 2.5; stroke-linecap: round"/>
   </g>
   <g id="line2d_9">
    <path d="M 178.529449 339.865406 
L 153.553806 383.124487 
" clip-path="url(#p6d165360c4)" style="fill: none; stroke: #1477b5; stroke-width: 2.5; stroke-linecap: round"/>
   </g>
   <g id="line2d_10">
    <path d="M 534.198357 273.312973 
L 649.470551 339.865406 
" clip-path="url(#p6d165360c4)" style="fill: none; stroke: #8454ac; stroke-width: 2.5; stroke-linecap: round"/>
   </g>
   <g id="line2d_11">
    <path d="M 534.198357 273.312973 
L 649.470551 206.76054 
" clip-path="url(#p6d165360c4)" style="fill: none; stroke: #8454ac; stroke-width: 2.5; stroke-linecap: round"/>
   </g>
   <g id="line2d_12">
    <path d="M 649.470551 339.865406 
L 649.470551 206.76054 
" clip-path="url(#p6d165360c4)" style="fill: none; stroke: #8454ac; stroke-width: 2.5; stroke-linecap: round"/>
   </g>
   <g id="line2d_13">
    <path d="M 611.046486 273.312973 
L 534.198357 273.312973 
" clip-path="url(#p6d165360c4)" style="fill: none; stroke: #bd661d; stroke-width: 2.5; stroke-linecap: round"/>
   </g>
   <g id="line2d_14">
    <path d="M 611.046486 273.312973 
L 649.470551 339.865406 
" clip-path="url(#p6d165360c4)" style="fill: none; stroke: #bd661d; stroke-width: 2.5; stroke-linecap: round"/>
   </g>
   <g id="line2d_15">
    <path d="M 611.046486 273.312973 
L 649.470551 206.76054 
" clip-path="url(#p6d165360c4)" style="fill: none; stroke: #bd661d; stroke-width: 2.5; stroke-linecap: round"/>
   </g>
   <g id="line2d_16">
    <path d="M 649.470551 339.865406 
L 674.446194 383.124487 
" clip-path="url(#p6d165360c4)" style="fill: none; stroke: #1477b5; stroke-width: 2.5; stroke-linecap: round"/>
   </g>
   <g id="line2d_17">
    <path d="M 649.470551 206.76054 
L 674.446194 163.501459 
" clip-path="url(#p6d165360c4)" style="fill: none; stroke: #1477b5; stroke-width: 2.5; stroke-linecap: round"/>
   </g>
   <g id="line2d_18">
    <path d="M 293.801643 273.312973 
L 534.198357 273.312973 
" clip-path="url(#p6d165360c4)" style="fill: none; stroke: #1477b5; stroke-width: 3.7; stroke-linecap: round"/>
   </g>
   <g id="text_1">
    <text style="font-weight: 700; font-size: 20.25px; font-family: 'DejaVu Sans'; text-anchor: middle; fill: #203142" x="414" y="49.488" transform="rotate(-0 414 49.488)">Connect site gadgets along the original edges</text>
   </g>
   <g id="patch_6">
    <path d="M 216.953514 126.316294 
C 218.468976 126.316294 219.922574 125.714194 220.994168 124.6426 
C 222.065762 123.571006 222.667862 122.117409 222.667862 120.601946 
C 222.667862 119.086483 222.065762 117.632886 220.994168 116.561292 
C 219.922574 115.489698 218.468976 114.887598 216.953514 114.887598 
C 215.438051 114.887598 213.984453 115.489698 212.912859 116.561292 
C 211.841265 117.632886 211.239165 119.086483 211.239165 120.601946 
C 211.239165 122.117409 211.841265 123.571006 212.912859 124.6426 
C 213.984453 125.714194 215.438051 126.316294 216.953514 126.316294 
z
" clip-path="url(#p6d165360c4)" style="fill: #ffffff; stroke: #203142; stroke-width: 1.8; stroke-linejoin: miter"/>
   </g>
   <g id="patch_7">
    <path d="M 611.046486 126.316294 
C 612.561949 126.316294 614.015547 125.714194 615.087141 124.6426 
C 616.158735 123.571006 616.760835 122.117409 616.760835 120.601946 
C 616.760835 119.086483 616.158735 117.632886 615.087141 116.561292 
C 614.015547 115.489698 612.561949 114.887598 611.046486 114.887598 
C 609.531024 114.887598 608.077426 115.489698 607.005832 116.561292 
C 605.934238 117.632886 605.332138 119.086483 605.332138 120.601946 
C 605.332138 122.117409 605.934238 123.571006 607.005832 124.6426 
C 608.077426 125.714194 609.531024 126.316294 611.046486 126.316294 
z
" clip-path="url(#p6d165360c4)" style="fill: #ffffff; stroke: #203142; stroke-width: 1.8; stroke-linejoin: miter"/>
   </g>
   <g id="patch_8">
    <path d="M 293.801643 279.027321 
C 295.317106 279.027321 296.770703 278.425221 297.842298 277.353627 
C 298.913892 276.282033 299.515991 274.828436 299.515991 273.312973 
C 299.515991 271.79751 298.913892 270.343913 297.842298 269.272319 
C 296.770703 268.200725 295.317106 267.598625 293.801643 267.598625 
C 292.28618 267.598625 290.832583 268.200725 289.760989 269.272319 
C 288.689395 270.343913 288.087295 271.79751 288.087295 273.312973 
C 288.087295 274.828436 288.689395 276.282033 289.760989 277.353627 
C 290.832583 278.425221 292.28618 279.027321 293.801643 279.027321 
z
" clip-path="url(#p6d165360c4)" style="fill: #ffffff; stroke: #203142; stroke-width: 1.8; stroke-linejoin: miter"/>
   </g>
   <g id="patch_9">
    <path d="M 178.529449 212.474889 
C 180.044911 212.474889 181.498509 211.872789 182.570103 210.801195 
C 183.641697 209.729601 184.243797 208.276003 184.243797 206.76054 
C 184.243797 205.245078 183.641697 203.79148 182.570103 202.719886 
C 181.498509 201.648292 180.044911 201.046192 178.529449 201.046192 
C 177.013986 201.046192 175.560388 201.648292 174.488794 202.719886 
C 173.4172 203.79148 172.815101 205.245078 172.815101 206.76054 
C 172.815101 208.276003 173.4172 209.729601 174.488794 210.801195 
C 175.560388 211.872789 177.013986 212.474889 178.529449 212.474889 
z
" clip-path="url(#p6d165360c4)" style="fill: #ffffff; stroke: #203142; stroke-width: 1.8; stroke-linejoin: miter"/>
   </g>
   <g id="patch_10">
    <path d="M 178.529449 345.579754 
C 180.044911 345.579754 181.498509 344.977654 182.570103 343.90606 
C 183.641697 342.834466 184.243797 341.380868 184.243797 339.865406 
C 184.243797 338.349943 183.641697 336.896345 182.570103 335.824751 
C 181.498509 334.753157 180.044911 334.151057 178.529449 334.151057 
C 177.013986 334.151057 175.560388 334.753157 174.488794 335.824751 
C 173.4172 336.896345 172.815101 338.349943 172.815101 339.865406 
C 172.815101 341.380868 173.4172 342.834466 174.488794 343.90606 
C 175.560388 344.977654 177.013986 345.579754 178.529449 345.579754 
z
" clip-path="url(#p6d165360c4)" style="fill: #ffffff; stroke: #203142; stroke-width: 1.8; stroke-linejoin: miter"/>
   </g>
   <g id="patch_11">
    <path d="M 216.953514 279.027321 
C 218.468976 279.027321 219.922574 278.425221 220.994168 277.353627 
C 222.065762 276.282033 222.667862 274.828436 222.667862 273.312973 
C 222.667862 271.79751 222.065762 270.343913 220.994168 269.272319 
C 219.922574 268.200725 218.468976 267.598625 216.953514 267.598625 
C 215.438051 267.598625 213.984453 268.200725 212.912859 269.272319 
C 211.841265 270.343913 211.239165 271.79751 211.239165 273.312973 
C 211.239165 274.828436 211.841265 276.282033 212.912859 277.353627 
C 213.984453 278.425221 215.438051 279.027321 216.953514 279.027321 
z
" clip-path="url(#p6d165360c4)" style="fill: #ffffff; stroke: #203142; stroke-width: 1.8; stroke-linejoin: miter"/>
   </g>
   <g id="patch_12">
    <path d="M 534.198357 279.027321 
C 535.71382 279.027321 537.167417 278.425221 538.239011 277.353627 
C 539.310605 276.282033 539.912705 274.828436 539.912705 273.312973 
C 539.912705 271.79751 539.310605 270.343913 538.239011 269.272319 
C 537.167417 268.200725 535.71382 267.598625 534.198357 267.598625 
C 532.682894 267.598625 531.229297 268.200725 530.157702 269.272319 
C 529.086108 270.343913 528.484009 271.79751 528.484009 273.312973 
C 528.484009 274.828436 529.086108 276.282033 530.157702 277.353627 
C 531.229297 278.425221 532.682894 279.027321 534.198357 279.027321 
z
" clip-path="url(#p6d165360c4)" style="fill: #ffffff; stroke: #203142; stroke-width: 1.8; stroke-linejoin: miter"/>
   </g>
   <g id="patch_13">
    <path d="M 649.470551 345.579754 
C 650.986014 345.579754 652.439612 344.977654 653.511206 343.90606 
C 654.5828 342.834466 655.184899 341.380868 655.184899 339.865406 
C 655.184899 338.349943 654.5828 336.896345 653.511206 335.824751 
C 652.439612 334.753157 650.986014 334.151057 649.470551 334.151057 
C 647.955089 334.151057 646.501491 334.753157 645.429897 335.824751 
C 644.358303 336.896345 643.756203 338.349943 643.756203 339.865406 
C 643.756203 341.380868 644.358303 342.834466 645.429897 343.90606 
C 646.501491 344.977654 647.955089 345.579754 649.470551 345.579754 
z
" clip-path="url(#p6d165360c4)" style="fill: #ffffff; stroke: #203142; stroke-width: 1.8; stroke-linejoin: miter"/>
   </g>
   <g id="patch_14">
    <path d="M 649.470551 212.474889 
C 650.986014 212.474889 652.439612 211.872789 653.511206 210.801195 
C 654.5828 209.729601 655.184899 208.276003 655.184899 206.76054 
C 655.184899 205.245078 654.5828 203.79148 653.511206 202.719886 
C 652.439612 201.648292 650.986014 201.046192 649.470551 201.046192 
C 647.955089 201.046192 646.501491 201.648292 645.429897 202.719886 
C 644.358303 203.79148 643.756203 205.245078 643.756203 206.76054 
C 643.756203 208.276003 644.358303 209.729601 645.429897 210.801195 
C 646.501491 211.872789 647.955089 212.474889 649.470551 212.474889 
z
" clip-path="url(#p6d165360c4)" style="fill: #ffffff; stroke: #203142; stroke-width: 1.8; stroke-linejoin: miter"/>
   </g>
   <g id="patch_15">
    <path d="M 611.046486 279.027321 
C 612.561949 279.027321 614.015547 278.425221 615.087141 277.353627 
C 616.158735 276.282033 616.760835 274.828436 616.760835 273.312973 
C 616.760835 271.79751 616.158735 270.343913 615.087141 269.272319 
C 614.015547 268.200725 612.561949 267.598625 611.046486 267.598625 
C 609.531024 267.598625 608.077426 268.200725 607.005832 269.272319 
C 605.934238 270.343913 605.332138 271.79751 605.332138 273.312973 
C 605.332138 274.828436 605.934238 276.282033 607.005832 277.353627 
C 608.077426 278.425221 609.531024 279.027321 611.046486 279.027321 
z
" clip-path="url(#p6d165360c4)" style="fill: #ffffff; stroke: #203142; stroke-width: 1.8; stroke-linejoin: miter"/>
   </g>
   <g id="text_2">
    <g id="patch_16">
     <path d="M 158.714514 106.678266 
L 275.192514 106.678266 
L 275.192514 87.234469 
L 158.714514 87.234469 
z
" style="fill: #ffffff"/>
    </g>
    <!-- Original site $u$ -->
    <g style="fill: #203142" transform="translate(160.334514 101.166469)">
     <text>
      <tspan x="0" y="-0.703125" style="font-size: 16.2px; font-family: 'DejaVu Sans'; fill: #203142">O</tspan>
      <tspan x="12.741333" y="-0.703125" style="font-size: 16.2px; font-family: 'DejaVu Sans'; fill: #203142">r</tspan>
      <tspan x="19.396545" y="-0.703125" style="font-size: 16.2px; font-family: 'DejaVu Sans'; fill: #203142">i</tspan>
      <tspan x="23.893951" y="-0.703125" style="font-size: 16.2px; font-family: 'DejaVu Sans'; fill: #203142">g</tspan>
      <tspan x="34.16922" y="-0.703125" style="font-size: 16.2px; font-family: 'DejaVu Sans'; fill: #203142">i</tspan>
      <tspan x="38.666626" y="-0.703125" style="font-size: 16.2px; font-family: 'DejaVu Sans'; fill: #203142">n</tspan>
      <tspan x="48.926086" y="-0.703125" style="font-size: 16.2px; font-family: 'DejaVu Sans'; fill: #203142">a</tspan>
      <tspan x="58.845673" y="-0.703125" style="font-size: 16.2px; font-family: 'DejaVu Sans'; fill: #203142">l</tspan>
      <tspan x="63.343079" y="-0.703125" style="font-size: 16.2px; font-family: 'DejaVu Sans'; fill: #203142"> </tspan>
      <tspan x="68.488617" y="-0.703125" style="font-size: 16.2px; font-family: 'DejaVu Sans'; fill: #203142">s</tspan>
      <tspan x="76.922241" y="-0.703125" style="font-size: 16.2px; font-family: 'DejaVu Sans'; fill: #203142">i</tspan>
      <tspan x="81.419647" y="-0.703125" style="font-size: 16.2px; font-family: 'DejaVu Sans'; fill: #203142">t</tspan>
      <tspan x="87.766602" y="-0.703125" style="font-size: 16.2px; font-family: 'DejaVu Sans'; fill: #203142">e</tspan>
      <tspan x="97.725708" y="-0.703125" style="font-size: 16.2px; font-family: 'DejaVu Sans'; fill: #203142"> </tspan>
      <tspan x="102.871246" y="-0.703125" style="font-size: 16.2px; font-family: 'DejaVu Sans'; fill: #203142">u</tspan>
     </text>
    </g>
   </g>
   <g id="text_3">
    <g id="patch_17">
     <path d="M 553.131486 106.678266 
L 668.961486 106.678266 
L 668.961486 87.234469 
L 553.131486 87.234469 
z
" style="fill: #ffffff"/>
    </g>
    <!-- Original site $v$ -->
    <g style="fill: #203142" transform="translate(554.751486 101.166469)">
     <text>
      <tspan x="0" y="-0.703125" style="font-size: 16.2px; font-family: 'DejaVu Sans'; fill: #203142">O</tspan>
      <tspan x="12.741333" y="-0.703125" style="font-size: 16.2px; font-family: 'DejaVu Sans'; fill: #203142">r</tspan>
      <tspan x="19.396545" y="-0.703125" style="font-size: 16.2px; font-family: 'DejaVu Sans'; fill: #203142">i</tspan>
      <tspan x="23.893951" y="-0.703125" style="font-size: 16.2px; font-family: 'DejaVu Sans'; fill: #203142">g</tspan>
      <tspan x="34.16922" y="-0.703125" style="font-size: 16.2px; font-family: 'DejaVu Sans'; fill: #203142">i</tspan>
      <tspan x="38.666626" y="-0.703125" style="font-size: 16.2px; font-family: 'DejaVu Sans'; fill: #203142">n</tspan>
      <tspan x="48.926086" y="-0.703125" style="font-size: 16.2px; font-family: 'DejaVu Sans'; fill: #203142">a</tspan>
      <tspan x="58.845673" y="-0.703125" style="font-size: 16.2px; font-family: 'DejaVu Sans'; fill: #203142">l</tspan>
      <tspan x="63.343079" y="-0.703125" style="font-size: 16.2px; font-family: 'DejaVu Sans'; fill: #203142"> </tspan>
      <tspan x="68.488617" y="-0.703125" style="font-size: 16.2px; font-family: 'DejaVu Sans'; fill: #203142">s</tspan>
      <tspan x="76.922241" y="-0.703125" style="font-size: 16.2px; font-family: 'DejaVu Sans'; fill: #203142">i</tspan>
      <tspan x="81.419647" y="-0.703125" style="font-size: 16.2px; font-family: 'DejaVu Sans'; fill: #203142">t</tspan>
      <tspan x="87.766602" y="-0.703125" style="font-size: 16.2px; font-family: 'DejaVu Sans'; fill: #203142">e</tspan>
      <tspan x="97.725708" y="-0.703125" style="font-size: 16.2px; font-family: 'DejaVu Sans'; fill: #203142"> </tspan>
      <tspan x="102.871246" y="-0.703125" style="font-size: 16.2px; font-family: 'DejaVu Sans'; fill: #203142">v</tspan>
     </text>
    </g>
   </g>
   <g id="text_4">
    <g id="patch_18">
     <path d="M 314.775 130.323844 
L 513.225 130.323844 
L 513.225 110.880048 
L 314.775 110.880048 
z
" style="fill: #ffffff"/>
    </g>
    <!-- Original edge $e$: ratio $\rho_e$ -->
    <g style="fill: #1477b5" transform="translate(316.395 124.812048)">
     <text>
      <tspan x="0" y="-0.703125" style="font-size: 16.2px; font-family: 'DejaVu Sans'; fill: #1477b5">O</tspan>
      <tspan x="12.741333" y="-0.703125" style="font-size: 16.2px; font-family: 'DejaVu Sans'; fill: #1477b5">r</tspan>
      <tspan x="19.396545" y="-0.703125" style="font-size: 16.2px; font-family: 'DejaVu Sans'; fill: #1477b5">i</tspan>
      <tspan x="23.893951" y="-0.703125" style="font-size: 16.2px; font-family: 'DejaVu Sans'; fill: #1477b5">g</tspan>
      <tspan x="34.16922" y="-0.703125" style="font-size: 16.2px; font-family: 'DejaVu Sans'; fill: #1477b5">i</tspan>
      <tspan x="38.666626" y="-0.703125" style="font-size: 16.2px; font-family: 'DejaVu Sans'; fill: #1477b5">n</tspan>
      <tspan x="48.926086" y="-0.703125" style="font-size: 16.2px; font-family: 'DejaVu Sans'; fill: #1477b5">a</tspan>
      <tspan x="58.845673" y="-0.703125" style="font-size: 16.2px; font-family: 'DejaVu Sans'; fill: #1477b5">l</tspan>
      <tspan x="63.343079" y="-0.703125" style="font-size: 16.2px; font-family: 'DejaVu Sans'; fill: #1477b5"> </tspan>
      <tspan x="68.488617" y="-0.703125" style="font-size: 16.2px; font-family: 'DejaVu Sans'; fill: #1477b5">e</tspan>
      <tspan x="78.447723" y="-0.703125" style="font-size: 16.2px; font-family: 'DejaVu Sans'; fill: #1477b5">d</tspan>
      <tspan x="88.722992" y="-0.703125" style="font-size: 16.2px; font-family: 'DejaVu Sans'; fill: #1477b5">g</tspan>
      <tspan x="98.99826" y="-0.703125" style="font-size: 16.2px; font-family: 'DejaVu Sans'; fill: #1477b5">e</tspan>
      <tspan x="108.957367" y="-0.703125" style="font-size: 16.2px; font-family: 'DejaVu Sans'; fill: #1477b5"> </tspan>
      <tspan x="114.102905" y="-0.703125" style="font-size: 16.2px; font-family: 'DejaVu Sans'; fill: #1477b5">e</tspan>
      <tspan x="124.062012" y="-0.703125" style="font-size: 16.2px; font-family: 'DejaVu Sans'; fill: #1477b5">:</tspan>
      <tspan x="129.515808" y="-0.703125" style="font-size: 16.2px; font-family: 'DejaVu Sans'; fill: #1477b5"> </tspan>
      <tspan x="134.661346" y="-0.703125" style="font-size: 16.2px; font-family: 'DejaVu Sans'; fill: #1477b5">r</tspan>
      <tspan x="141.316559" y="-0.703125" style="font-size: 16.2px; font-family: 'DejaVu Sans'; fill: #1477b5">a</tspan>
      <tspan x="151.236145" y="-0.703125" style="font-size: 16.2px; font-family: 'DejaVu Sans'; fill: #1477b5">t</tspan>
      <tspan x="157.583099" y="-0.703125" style="font-size: 16.2px; font-family: 'DejaVu Sans'; fill: #1477b5">i</tspan>
      <tspan x="162.080505" y="-0.703125" style="font-size: 16.2px; font-family: 'DejaVu Sans'; fill: #1477b5">o</tspan>
      <tspan x="171.984283" y="-0.703125" style="font-size: 16.2px; font-family: 'DejaVu Sans'; fill: #1477b5"> </tspan>
      <tspan x="177.129822" y="-0.703125" style="font-size: 16.2px; font-family: 'DejaVu Sans'; fill: #1477b5">ρ</tspan>
      <tspan x="187.560129" y="1.726867" style="font-size: 11.34px; font-family: 'DejaVu Sans'; fill: #1477b5">e</tspan>
     </text>
    </g>
   </g>
   <g id="text_5">
    <!-- $c_u$ -->
    <g style="fill: #203142" transform="translate(209.231514 299.830838)">
     <text>
      <tspan x="0" y="-0.6875" style="font-size: 14.85px; font-family: 'DejaVu Sans'; fill: #203142">c</tspan>
      <tspan x="8.303282" y="1.539993" style="font-size: 10.395px; font-family: 'DejaVu Sans'; fill: #203142">u</tspan>
     </text>
    </g>
   </g>
   <g id="text_6">
    <g id="patch_19">
     <path d="M 156.971286 285.489973 
L 190.235286 285.489973 
L 190.235286 261.135973 
L 156.971286 261.135973 
z
" style="fill: #ffffff"/>
    </g>
    <!-- $W_{23}^{(u)}$ -->
    <g style="fill: #8454ac" transform="translate(158.604786 278.658973)">
     <text>
      <tspan x="0" y="-0.25" style="font-size: 14.85px; font-family: 'DejaVu Sans'; fill: #8454ac">W</tspan>
      <tspan x="14.819167" y="-8.114062" style="font-size: 10.395px; font-family: 'DejaVu Sans'; fill: #8454ac">(</tspan>
      <tspan x="14.819167" y="4.676562" style="font-size: 10.395px; font-family: 'DejaVu Sans'; fill: #8454ac">2</tspan>
      <tspan x="18.872931" y="-8.114062" style="font-size: 10.395px; font-family: 'DejaVu Sans'; fill: #8454ac">u</tspan>
      <tspan x="21.429999" y="4.676562" style="font-size: 10.395px; font-family: 'DejaVu Sans'; fill: #8454ac">3</tspan>
      <tspan x="25.458396" y="-8.114062" style="font-size: 10.395px; font-family: 'DejaVu Sans'; fill: #8454ac">)</tspan>
     </text>
    </g>
   </g>
   <g id="text_7">
    <g id="patch_20">
     <path d="M 242.686508 285.415723 
L 275.950508 285.415723 
L 275.950508 261.210223 
L 242.686508 261.210223 
z
" style="fill: #ffffff"/>
    </g>
    <!-- $W_{c1}^{(u)}$ -->
    <g style="fill: #bd661d" transform="translate(244.320008 278.733223)">
     <text>
      <tspan x="0" y="-0.25" style="font-size: 14.85px; font-family: 'DejaVu Sans'; fill: #bd661d">W</tspan>
      <tspan x="14.819167" y="-8.114062" style="font-size: 10.395px; font-family: 'DejaVu Sans'; fill: #bd661d">(</tspan>
      <tspan x="14.819167" y="4.545313" style="font-size: 10.395px; font-family: 'DejaVu Sans'; fill: #bd661d">c</tspan>
      <tspan x="18.872931" y="-8.114062" style="font-size: 10.395px; font-family: 'DejaVu Sans'; fill: #bd661d">u</tspan>
      <tspan x="20.531981" y="4.545313" style="font-size: 10.395px; font-family: 'DejaVu Sans'; fill: #bd661d">1</tspan>
      <tspan x="25.458396" y="-8.114062" style="font-size: 10.395px; font-family: 'DejaVu Sans'; fill: #bd661d">)</tspan>
     </text>
    </g>
   </g>
   <g id="text_8">
    <g id="patch_21">
     <path d="M 147.212514 387.535378 
L 286.694514 387.535378 
L 286.694514 365.989378 
L 147.212514 365.989378 
z
" style="fill: #ffffff"/>
    </g>
    <!-- Site signature $\phi_u^r$ -->
    <g style="fill: #203142" transform="translate(148.832514 380.731378)">
     <text>
      <tspan x="0" y="-0.96565" style="font-size: 16.2px; font-family: 'DejaVu Sans'; fill: #203142">S</tspan>
      <tspan x="10.275269" y="-0.96565" style="font-size: 16.2px; font-family: 'DejaVu Sans'; fill: #203142">i</tspan>
      <tspan x="14.772675" y="-0.96565" style="font-size: 16.2px; font-family: 'DejaVu Sans'; fill: #203142">t</tspan>
      <tspan x="21.119629" y="-0.96565" style="font-size: 16.2px; font-family: 'DejaVu Sans'; fill: #203142">e</tspan>
      <tspan x="31.078735" y="-0.96565" style="font-size: 16.2px; font-family: 'DejaVu Sans'; fill: #203142"> </tspan>
      <tspan x="36.224274" y="-0.96565" style="font-size: 16.2px; font-family: 'DejaVu Sans'; fill: #203142">s</tspan>
      <tspan x="44.657898" y="-0.96565" style="font-size: 16.2px; font-family: 'DejaVu Sans'; fill: #203142">i</tspan>
      <tspan x="49.155304" y="-0.96565" style="font-size: 16.2px; font-family: 'DejaVu Sans'; fill: #203142">g</tspan>
      <tspan x="59.430573" y="-0.96565" style="font-size: 16.2px; font-family: 'DejaVu Sans'; fill: #203142">n</tspan>
      <tspan x="69.690033" y="-0.96565" style="font-size: 16.2px; font-family: 'DejaVu Sans'; fill: #203142">a</tspan>
      <tspan x="79.609619" y="-0.96565" style="font-size: 16.2px; font-family: 'DejaVu Sans'; fill: #203142">t</tspan>
      <tspan x="85.956573" y="-0.96565" style="font-size: 16.2px; font-family: 'DejaVu Sans'; fill: #203142">u</tspan>
      <tspan x="96.216034" y="-0.96565" style="font-size: 16.2px; font-family: 'DejaVu Sans'; fill: #203142">r</tspan>
      <tspan x="102.871246" y="-0.96565" style="font-size: 16.2px; font-family: 'DejaVu Sans'; fill: #203142">e</tspan>
      <tspan x="112.830353" y="-0.96565" style="font-size: 16.2px; font-family: 'DejaVu Sans'; fill: #203142"> </tspan>
      <tspan x="117.975891" y="-0.96565" style="font-size: 16.2px; font-family: 'DejaVu Sans'; fill: #203142">ϕ</tspan>
      <tspan x="128.809305" y="-7.65625" style="font-size: 11.34px; font-family: 'DejaVu Sans'; fill: #203142">r</tspan>
      <tspan x="128.809305" y="4.04015" style="font-size: 11.34px; font-family: 'DejaVu Sans'; fill: #203142">u</tspan>
     </text>
    </g>
   </g>
   <g id="text_9">
    <!-- $c_v$ -->
    <g style="fill: #203142" transform="translate(603.547236 299.830838)">
     <text>
      <tspan x="0" y="-0.6875" style="font-size: 14.85px; font-family: 'DejaVu Sans'; fill: #203142">c</tspan>
      <tspan x="8.303282" y="1.539993" style="font-size: 10.395px; font-family: 'DejaVu Sans'; fill: #203142">v</tspan>
     </text>
    </g>
   </g>
   <g id="text_10">
    <g id="patch_22">
     <path d="M 637.987464 285.489973 
L 670.805964 285.489973 
L 670.805964 261.135973 
L 637.987464 261.135973 
z
" style="fill: #ffffff"/>
    </g>
    <!-- $W_{23}^{(v)}$ -->
    <g style="fill: #8454ac" transform="translate(639.620964 278.658973)">
     <text>
      <tspan x="0" y="-0.25" style="font-size: 14.85px; font-family: 'DejaVu Sans'; fill: #8454ac">W</tspan>
      <tspan x="14.819167" y="-8.114062" style="font-size: 10.395px; font-family: 'DejaVu Sans'; fill: #8454ac">(</tspan>
      <tspan x="14.819167" y="4.676562" style="font-size: 10.395px; font-family: 'DejaVu Sans'; fill: #8454ac">2</tspan>
      <tspan x="18.872931" y="-8.114062" style="font-size: 10.395px; font-family: 'DejaVu Sans'; fill: #8454ac">v</tspan>
      <tspan x="21.429999" y="4.676562" style="font-size: 10.395px; font-family: 'DejaVu Sans'; fill: #8454ac">3</tspan>
      <tspan x="25.022071" y="-8.114062" style="font-size: 10.395px; font-family: 'DejaVu Sans'; fill: #8454ac">)</tspan>
     </text>
    </g>
   </g>
   <g id="text_11">
    <g id="patch_23">
     <path d="M 552.272242 285.415723 
L 585.090742 285.415723 
L 585.090742 261.210223 
L 552.272242 261.210223 
z
" style="fill: #ffffff"/>
    </g>
    <!-- $W_{c1}^{(v)}$ -->
    <g style="fill: #bd661d" transform="translate(553.905742 278.733223)">
     <text>
      <tspan x="0" y="-0.25" style="font-size: 14.85px; font-family: 'DejaVu Sans'; fill: #bd661d">W</tspan>
      <tspan x="14.819167" y="-8.114062" style="font-size: 10.395px; font-family: 'DejaVu Sans'; fill: #bd661d">(</tspan>
      <tspan x="14.819167" y="4.545313" style="font-size: 10.395px; font-family: 'DejaVu Sans'; fill: #bd661d">c</tspan>
      <tspan x="18.872931" y="-8.114062" style="font-size: 10.395px; font-family: 'DejaVu Sans'; fill: #bd661d">v</tspan>
      <tspan x="20.531981" y="4.545313" style="font-size: 10.395px; font-family: 'DejaVu Sans'; fill: #bd661d">1</tspan>
      <tspan x="25.022071" y="-8.114062" style="font-size: 10.395px; font-family: 'DejaVu Sans'; fill: #bd661d">)</tspan>
     </text>
    </g>
   </g>
   <g id="text_12">
    <g id="patch_24">
     <path d="M 541.548486 387.454378 
L 680.544486 387.454378 
L 680.544486 366.070378 
L 541.548486 366.070378 
z
" style="fill: #ffffff"/>
    </g>
    <!-- Site signature $\phi_v^r$ -->
    <g style="fill: #203142" transform="translate(543.168486 380.812378)">
     <text>
      <tspan x="0" y="-0.96565" style="font-size: 16.2px; font-family: 'DejaVu Sans'; fill: #203142">S</tspan>
      <tspan x="10.275269" y="-0.96565" style="font-size: 16.2px; font-family: 'DejaVu Sans'; fill: #203142">i</tspan>
      <tspan x="14.772675" y="-0.96565" style="font-size: 16.2px; font-family: 'DejaVu Sans'; fill: #203142">t</tspan>
      <tspan x="21.119629" y="-0.96565" style="font-size: 16.2px; font-family: 'DejaVu Sans'; fill: #203142">e</tspan>
      <tspan x="31.078735" y="-0.96565" style="font-size: 16.2px; font-family: 'DejaVu Sans'; fill: #203142"> </tspan>
      <tspan x="36.224274" y="-0.96565" style="font-size: 16.2px; font-family: 'DejaVu Sans'; fill: #203142">s</tspan>
      <tspan x="44.657898" y="-0.96565" style="font-size: 16.2px; font-family: 'DejaVu Sans'; fill: #203142">i</tspan>
      <tspan x="49.155304" y="-0.96565" style="font-size: 16.2px; font-family: 'DejaVu Sans'; fill: #203142">g</tspan>
      <tspan x="59.430573" y="-0.96565" style="font-size: 16.2px; font-family: 'DejaVu Sans'; fill: #203142">n</tspan>
      <tspan x="69.690033" y="-0.96565" style="font-size: 16.2px; font-family: 'DejaVu Sans'; fill: #203142">a</tspan>
      <tspan x="79.609619" y="-0.96565" style="font-size: 16.2px; font-family: 'DejaVu Sans'; fill: #203142">t</tspan>
      <tspan x="85.956573" y="-0.96565" style="font-size: 16.2px; font-family: 'DejaVu Sans'; fill: #203142">u</tspan>
      <tspan x="96.216034" y="-0.96565" style="font-size: 16.2px; font-family: 'DejaVu Sans'; fill: #203142">r</tspan>
      <tspan x="102.871246" y="-0.96565" style="font-size: 16.2px; font-family: 'DejaVu Sans'; fill: #203142">e</tspan>
      <tspan x="112.830353" y="-0.96565" style="font-size: 16.2px; font-family: 'DejaVu Sans'; fill: #203142"> </tspan>
      <tspan x="117.975891" y="-0.96565" style="font-size: 16.2px; font-family: 'DejaVu Sans'; fill: #203142">ϕ</tspan>
      <tspan x="128.809305" y="-7.65625" style="font-size: 11.34px; font-family: 'DejaVu Sans'; fill: #203142">r</tspan>
      <tspan x="128.809305" y="4.04015" style="font-size: 11.34px; font-family: 'DejaVu Sans'; fill: #203142">v</tspan>
     </text>
    </g>
   </g>
   <g id="text_13">
    <g id="patch_25">
     <path d="M 292.905 254.112557 
L 535.095 254.112557 
L 535.095 233.399443 
L 292.905 233.399443 
z
" style="fill: #ffffff"/>
    </g>
    <!-- One shared wire, weight $\rho_e$ -->
    <g style="fill: #1477b5" transform="translate(294.4845 248.316943)">
     <text>
      <tspan x="0" y="-0.671875" style="font-size: 17.55px; font-family: 'DejaVu Sans'; fill: #1477b5">O</tspan>
      <tspan x="13.81131" y="-0.671875" style="font-size: 17.55px; font-family: 'DejaVu Sans'; fill: #1477b5">n</tspan>
      <tspan x="24.932327" y="-0.671875" style="font-size: 17.55px; font-family: 'DejaVu Sans'; fill: #1477b5">e</tspan>
      <tspan x="35.727768" y="-0.671875" style="font-size: 17.55px; font-family: 'DejaVu Sans'; fill: #1477b5"> </tspan>
      <tspan x="41.30542" y="-0.671875" style="font-size: 17.55px; font-family: 'DejaVu Sans'; fill: #1477b5">s</tspan>
      <tspan x="50.447281" y="-0.671875" style="font-size: 17.55px; font-family: 'DejaVu Sans'; fill: #1477b5">h</tspan>
      <tspan x="61.568298" y="-0.671875" style="font-size: 17.55px; font-family: 'DejaVu Sans'; fill: #1477b5">a</tspan>
      <tspan x="72.320908" y="-0.671875" style="font-size: 17.55px; font-family: 'DejaVu Sans'; fill: #1477b5">r</tspan>
      <tspan x="79.535004" y="-0.671875" style="font-size: 17.55px; font-family: 'DejaVu Sans'; fill: #1477b5">e</tspan>
      <tspan x="90.330444" y="-0.671875" style="font-size: 17.55px; font-family: 'DejaVu Sans'; fill: #1477b5">d</tspan>
      <tspan x="101.468597" y="-0.671875" style="font-size: 17.55px; font-family: 'DejaVu Sans'; fill: #1477b5"> </tspan>
      <tspan x="107.046249" y="-0.671875" style="font-size: 17.55px; font-family: 'DejaVu Sans'; fill: #1477b5">w</tspan>
      <tspan x="121.397339" y="-0.671875" style="font-size: 17.55px; font-family: 'DejaVu Sans'; fill: #1477b5">i</tspan>
      <tspan x="126.27243" y="-0.671875" style="font-size: 17.55px; font-family: 'DejaVu Sans'; fill: #1477b5">r</tspan>
      <tspan x="133.486526" y="-0.671875" style="font-size: 17.55px; font-family: 'DejaVu Sans'; fill: #1477b5">e</tspan>
      <tspan x="144.281967" y="-0.671875" style="font-size: 17.55px; font-family: 'DejaVu Sans'; fill: #1477b5">,</tspan>
      <tspan x="149.859619" y="-0.671875" style="font-size: 17.55px; font-family: 'DejaVu Sans'; fill: #1477b5"> </tspan>
      <tspan x="155.437271" y="-0.671875" style="font-size: 17.55px; font-family: 'DejaVu Sans'; fill: #1477b5">w</tspan>
      <tspan x="169.788361" y="-0.671875" style="font-size: 17.55px; font-family: 'DejaVu Sans'; fill: #1477b5">e</tspan>
      <tspan x="180.583801" y="-0.671875" style="font-size: 17.55px; font-family: 'DejaVu Sans'; fill: #1477b5">i</tspan>
      <tspan x="185.458893" y="-0.671875" style="font-size: 17.55px; font-family: 'DejaVu Sans'; fill: #1477b5">g</tspan>
      <tspan x="196.597046" y="-0.671875" style="font-size: 17.55px; font-family: 'DejaVu Sans'; fill: #1477b5">h</tspan>
      <tspan x="207.718063" y="-0.671875" style="font-size: 17.55px; font-family: 'DejaVu Sans'; fill: #1477b5">t</tspan>
      <tspan x="214.598022" y="-0.671875" style="font-size: 17.55px; font-family: 'DejaVu Sans'; fill: #1477b5"> </tspan>
      <tspan x="220.175674" y="-0.671875" style="font-size: 17.55px; font-family: 'DejaVu Sans'; fill: #1477b5">ρ</tspan>
      <tspan x="231.481786" y="1.960616" style="font-size: 12.285px; font-family: 'DejaVu Sans'; fill: #1477b5">e</tspan>
     </text>
    </g>
   </g>
   <g id="text_14">
    <!-- $p_{u,e}$ -->
    <g style="fill: #203142" transform="translate(293.413147 299.830838)">
     <text>
      <tspan x="0" y="-0.6875" style="font-size: 14.85px; font-family: 'DejaVu Sans'; fill: #203142">p</tspan>
      <tspan x="9.564421" y="1.539993" style="font-size: 10.395px; font-family: 'DejaVu Sans'; fill: #203142">u</tspan>
      <tspan x="16.149886" y="1.539993" style="font-size: 10.395px; font-family: 'DejaVu Sans'; fill: #203142">,</tspan>
      <tspan x="21.477111" y="1.539993" style="font-size: 10.395px; font-family: 'DejaVu Sans'; fill: #203142">e</tspan>
     </text>
    </g>
   </g>
   <g id="text_15">
    <!-- $p_{v,e}$ -->
    <g style="fill: #203142" transform="translate(506.446103 299.830838)">
     <text>
      <tspan x="0" y="-0.6875" style="font-size: 14.85px; font-family: 'DejaVu Sans'; fill: #203142">p</tspan>
      <tspan x="9.564421" y="1.539993" style="font-size: 10.395px; font-family: 'DejaVu Sans'; fill: #203142">v</tspan>
      <tspan x="15.713561" y="1.539993" style="font-size: 10.395px; font-family: 'DejaVu Sans'; fill: #203142">,</tspan>
      <tspan x="21.040786" y="1.539993" style="font-size: 10.395px; font-family: 'DejaVu Sans'; fill: #203142">e</tspan>
     </text>
    </g>
   </g>
   <g id="text_16">
    <g id="patch_26">
     <path d="M 350.20575 347.422292 
L 477.79425 347.422292 
L 477.79425 325.313405 
L 350.20575 325.313405 
z
" style="fill: #ffffff"/>
    </g>
    <!-- $K_{p_{u,e},p_{v,e}}=\kappa_e\rho_e$ -->
    <g style="fill: #1477b5" transform="translate(351.78525 340.226792)">
     <text>
      <tspan x="0" y="-0.203125" style="font-size: 17.55px; font-family: 'DejaVu Sans'; fill: #1477b5">K</tspan>
      <tspan x="68.304083" y="-0.203125" style="font-size: 17.55px; font-family: 'DejaVu Sans'; fill: #1477b5">=</tspan>
      <tspan x="86.425002" y="-0.203125" style="font-size: 17.55px; font-family: 'DejaVu Sans'; fill: #1477b5">κ</tspan>
      <tspan x="104.971007" y="-0.203125" style="font-size: 17.55px; font-family: 'DejaVu Sans'; fill: #1477b5">ρ</tspan>
      <tspan x="11.674536" y="2.429366" style="font-size: 12.285px; font-family: 'DejaVu Sans'; fill: #1477b5">p</tspan>
      <tspan x="35.071939" y="2.429366" style="font-size: 12.285px; font-family: 'DejaVu Sans'; fill: #1477b5">,</tspan>
      <tspan x="41.369286" y="2.429366" style="font-size: 12.285px; font-family: 'DejaVu Sans'; fill: #1477b5">p</tspan>
      <tspan x="96.934316" y="2.429366" style="font-size: 12.285px; font-family: 'DejaVu Sans'; fill: #1477b5">e</tspan>
      <tspan x="116.277119" y="2.429366" style="font-size: 12.285px; font-family: 'DejaVu Sans'; fill: #1477b5">e</tspan>
      <tspan x="19.588814" y="4.27211" style="font-size: 8.5995px; font-family: 'DejaVu Sans'; fill: #1477b5">u</tspan>
      <tspan x="25.038113" y="4.27211" style="font-size: 8.5995px; font-family: 'DejaVu Sans'; fill: #1477b5">,</tspan>
      <tspan x="29.446255" y="4.27211" style="font-size: 8.5995px; font-family: 'DejaVu Sans'; fill: #1477b5">e</tspan>
      <tspan x="49.283564" y="4.27211" style="font-size: 8.5995px; font-family: 'DejaVu Sans'; fill: #1477b5">v</tspan>
      <tspan x="54.371815" y="4.27211" style="font-size: 8.5995px; font-family: 'DejaVu Sans'; fill: #1477b5">,</tspan>
      <tspan x="58.779958" y="4.27211" style="font-size: 8.5995px; font-family: 'DejaVu Sans'; fill: #1477b5">e</tspan>
     </text>
    </g>
   </g>
   <g id="text_17">
    <g id="patch_27">
     <path d="M 111.047344 420.966146 
L 716.952656 420.966146 
L 716.952656 401.524881 
L 111.047344 401.524881 
z
" style="fill: #ffffff"/>
    </g>
    <text style="font-size: 16.2px; font-family: 'DejaVu Sans'; text-anchor: middle; fill: #203142" x="414" y="415.454349" transform="rotate(-0 414 415.454349)">Rows of K index ports and centers; orientation signs are assigned globally.</text>
   </g>
  </g>
 </g>
 <defs>
  <clipPath id="p6d165360c4">
   <rect x="49.464" y="61.488" width="729.072" height="364.536"/>
  </clipPath>
 </defs>
</svg>
